<?xml version="1.0" encoding="utf-8"?>
<!-- Generator: Adobe Illustrator 21.1.0, SVG Export Plug-In . SVG Version: 6.00 Build 0)  -->
<svg version="1.1" id="Group_1_1_" xmlns="http://www.w3.org/2000/svg" xmlns:xlink="http://www.w3.org/1999/xlink" x="0px" y="0px"
	 viewBox="0 0 96 96" style="enable-background:new 0 0 96 96;" xml:space="preserve">
<style type="text/css">
	.st0{fill-rule:evenodd;clip-rule:evenodd;fill:#2196F3;}
	.st1{fill-rule:evenodd;clip-rule:evenodd;fill:#FFCC80;}
	.st2{fill-rule:evenodd;clip-rule:evenodd;fill:#1976D2;}
	.st3{fill-rule:evenodd;clip-rule:evenodd;fill:#64B5F6;}
	.st4{fill-rule:evenodd;clip-rule:evenodd;fill:#0D47A1;}
	.st5{fill-rule:evenodd;clip-rule:evenodd;fill:#FF3D00;}
	.st6{fill-rule:evenodd;clip-rule:evenodd;fill:#DF2C00;}
	.st7{fill-rule:evenodd;clip-rule:evenodd;fill:#FFA726;}
</style>
<g id="Shape_170_copy">
	<g>
		<path class="st0" d="M69,14H27c-8.8,0-16,7.2-16,16v32h74V30C85,21.2,77.8,14,69,14z"/>
	</g>
</g>
<g id="Shape_170_copy_8">
	<g>
		<rect x="45" y="62" class="st1" width="10" height="20"/>
	</g>
</g>
<g id="Shape_170_copy_2">
	<g>
		<path class="st2" d="M27,14c-8.8,0-16,7.2-16,16v32h32V30C43,21.2,35.8,14,27,14z"/>
	</g>
</g>
<g id="Shape_170_copy_3">
	<g>
		<path class="st3" d="M27,18c-6.6,0-12,5.4-12,12v28h24V30C39,23.4,33.6,18,27,18z"/>
	</g>
</g>
<g id="Shape_170_copy_4">
	<g>
		<path class="st4" d="M33,32H21c-1.1,0-2,0.9-2,2c0,1.1,0.9,2,2,2h12c1.1,0,2-0.9,2-2C35,32.9,34.1,32,33,32z"/>
	</g>
</g>
<g id="Shape_170_copy_5">
	<g>
		<path class="st5" d="M56.4,28c-0.7-1.2-2-2-3.4-2c-2.2,0-4,1.8-4,4c0,2.2,1.8,4,4,4c1.5,0,2.8-0.8,3.4-2H71v8h8V28H56.4z"/>
	</g>
</g>
<g id="Shape_170_copy_6">
	<g>
		<circle class="st6" cx="53" cy="30" r="2"/>
	</g>
</g>
<g id="Shape_170">
	<g>
		<rect x="45" y="62" class="st7" width="10" height="4"/>
	</g>
</g>
</svg>
