<?xml version="1.0" encoding="utf-8"?>
<!-- Generator: Adobe Illustrator 21.1.0, SVG Export Plug-In . SVG Version: 6.00 Build 0)  -->
<svg version="1.1" id="Group_1_1_" xmlns="http://www.w3.org/2000/svg" xmlns:xlink="http://www.w3.org/1999/xlink" x="0px" y="0px"
	 viewBox="0 0 96 96" style="enable-background:new 0 0 96 96;" xml:space="preserve">
<style type="text/css">
	.st0{fill-rule:evenodd;clip-rule:evenodd;fill:#2196F3;}
	.st1{fill-rule:evenodd;clip-rule:evenodd;fill:#0D47A1;}
	.st2{fill-rule:evenodd;clip-rule:evenodd;fill:#90CAF9;}
</style>
<g id="Shape_172">
	<g>
		<path class="st0" d="M70,12H14c-4.4,0-8,3.6-8,8v34c0,4.4,3.6,8,8,8h56c4.4,0,8-3.6,8-8V20C78,15.6,74.4,12,70,12z"/>
	</g>
</g>
<g id="Shape_172_copy_4">
	<g>
		<path class="st1" d="M75.8,14.5L42,39.1L8.2,14.5c-0.9,1-1.6,2.2-1.9,3.5L42,44l35.7-25.9C77.4,16.7,76.7,15.5,75.8,14.5z"/>
	</g>
</g>
<g id="Shape_172_copy">
	<g>
		<path class="st2" d="M82,34H26c-4.4,0-8,3.6-8,8v34c0,4.4,3.6,8,8,8h56c4.4,0,8-3.6,8-8V42C90,37.6,86.4,34,82,34z"/>
	</g>
</g>
<g id="Shape_172_copy_2">
	<g>
		<path class="st0" d="M87.8,36.5L54,61.1L20.2,36.5c-0.9,1-1.6,2.2-1.9,3.5L54,66l35.7-25.9C89.4,38.7,88.7,37.5,87.8,36.5z"/>
	</g>
</g>
</svg>
