<?xml version="1.0" encoding="utf-8"?>
<!-- Generator: Adobe Illustrator 21.1.0, SVG Export Plug-In . SVG Version: 6.00 Build 0)  -->
<svg version="1.1" id="Group_1_1_" xmlns="http://www.w3.org/2000/svg" xmlns:xlink="http://www.w3.org/1999/xlink" x="0px" y="0px"
	 viewBox="0 0 96 96" style="enable-background:new 0 0 96 96;" xml:space="preserve">
<style type="text/css">
	.st0{fill-rule:evenodd;clip-rule:evenodd;fill:#4FC3F7;}
	.st1{fill-rule:evenodd;clip-rule:evenodd;fill:#FF9800;}
	.st2{fill-rule:evenodd;clip-rule:evenodd;fill:#01579B;}
	.st3{fill-rule:evenodd;clip-rule:evenodd;fill:#FFB74D;}
	.st4{fill-rule:evenodd;clip-rule:evenodd;fill:#424242;}
	.st5{fill-rule:evenodd;clip-rule:evenodd;fill:#784719;}
	.st6{fill-rule:evenodd;clip-rule:evenodd;fill:#43A047;}
	.st7{fill-rule:evenodd;clip-rule:evenodd;fill:#FFFFFF;}
</style>
<g id="Shape_175">
	<g>
		<path class="st0" d="M51.9,58c0,0-2,8-10,8c-8,0-10-8-10-8s-22,4-22,26h63.9C73.9,62,51.9,58,51.9,58z"/>
	</g>
</g>
<g id="Shape_175_copy_9">
	<g>
		<path class="st1" d="M59.9,30v-8c0-15.3-35.9-9.9-35.9,0v8c-2.2,0-4,1.8-4,4c0,2.2,1.8,4,4,4c0,0,0.1,0,0.1,0c1,9,8.6,16,17.9,16
			s16.9-7,17.9-16c0,0,0.1,0,0.1,0c2.2,0,4-1.8,4-4C63.9,31.8,62.1,30,59.9,30z"/>
	</g>
</g>
<g id="Shape_175_copy_7">
	<g>
		<path class="st1" d="M55.8,59.1c-2.3-0.8-3.9-1.1-3.9-1.1V46H32v12c0,0-1.6,0.3-3.9,1.1c0.4,2.9,3.7,10.3,12.8,10.8
			c0.3,0,0.7,0.1,1.1,0.1c0.4,0,0.7,0,1.1-0.1C52.2,69.4,55.4,62,55.8,59.1z"/>
	</g>
</g>
<g id="Shape_175_copy_6">
	<g>
		<path class="st2" d="M51.9,58c0,0-2,8-10,8c-8,0-10-8-10-8s-1.6,0.3-3.9,1.1C28.5,62.1,32,70,42,70c10,0,13.5-7.9,13.9-10.9
			C53.5,58.3,51.9,58,51.9,58z"/>
	</g>
</g>
<g id="Shape_175_copy_8">
	<g>
		<path class="st3" d="M24,22v14c0,9.9,8,18,18,18c9.9,0,18-8.1,18-18V22C59.9,6.7,24,12.1,24,22z"/>
	</g>
</g>
<g id="Shape_175_copy_10">
	<g>
		<path class="st4" d="M49.9,8l-2-4h-6c-12.1,0-20,9.9-20,22v4.6l4,3.4V24l24-8l8,8v10l4-3.5V26C61.9,18,59.8,10,49.9,8z"/>
	</g>
</g>
<g id="Shape_175_copy_11">
	<g>
		<path class="st5" d="M34,32c-1.1,0-2,0.9-2,2c0,1.1,0.9,2,2,2c1.1,0,2-0.9,2-2C36,32.9,35.1,32,34,32z M49.9,32c-1.1,0-2,0.9-2,2
			c0,1.1,0.9,2,2,2c1.1,0,2-0.9,2-2C51.9,32.9,51,32,49.9,32z"/>
	</g>
</g>
<g id="Shape_175_copy_12">
	<g>
		<ellipse class="st6" cx="65.9" cy="72" rx="20" ry="20"/>
	</g>
</g>
<g id="Shape_175_copy_13">
	<g>
		<polygon class="st7" points="77.9,68 69.9,68 69.9,60 61.9,60 61.9,68 53.9,68 53.9,76 61.9,76 61.9,84 69.9,84 69.9,76 77.9,76 
					"/>
	</g>
</g>
</svg>
